<svg width="20" height="16" viewBox="0 0 20 16" fill="none" xmlns="http://www.w3.org/2000/svg">
<path d="M10 0C9.07174 0 8.1815 0.368749 7.52513 1.02513C6.86875 1.6815 6.5 2.57174 6.5 3.5H8.5C8.5 3.10218 8.65804 2.72064 8.93934 2.43934C9.22064 2.15804 9.60218 2 10 2C10.3978 2 10.7794 2.15804 11.0607 2.43934C11.342 2.72064 11.5 3.10218 11.5 3.5C11.5 3.89782 11.342 4.27936 11.0607 4.56066C10.7794 4.84196 10.3978 5 10 5C9.45 5 9 5.45 9 6V7.75L0.4 14.2C0.232094 14.3259 0.108067 14.5015 0.0454864 14.7018C-0.0170937 14.9022 -0.0150539 15.1171 0.0513167 15.3162C0.117687 15.5153 0.245024 15.6885 0.41529 15.8112C0.585555 15.934 0.790118 16 1 16H19C19.2099 16 19.4144 15.934 19.5847 15.8112C19.755 15.6885 19.8823 15.5153 19.9487 15.3162C20.0151 15.1171 20.0171 14.9022 19.9545 14.7018C19.8919 14.5015 19.7679 14.3259 19.6 14.2L11 7.75V6.85C11.7216 6.63485 12.3546 6.19269 12.805 5.58919C13.2554 4.98569 13.4991 4.25303 13.5 3.5C13.5 2.57174 13.1313 1.6815 12.4749 1.02513C11.8185 0.368749 10.9283 0 10 0ZM10 9.5L16 14H4L10 9.5Z" fill="#0E162C"/>
</svg>
