<svg width="20" height="18" viewBox="0 0 20 18" fill="none" xmlns="http://www.w3.org/2000/svg">
<path d="M16.219 0.944123C16.872 1.45612 17.322 2.28312 17.506 3.14912L17.571 3.17512L19.616 4.12112C19.7302 4.17371 19.8271 4.25784 19.8951 4.3636C19.9631 4.46937 19.9995 4.59237 20 4.71812V17.0851C19.9993 17.1879 19.9747 17.289 19.9284 17.3807C19.882 17.4723 19.815 17.552 19.7326 17.6134C19.6503 17.6749 19.5548 17.7164 19.4537 17.7347C19.3526 17.753 19.2487 17.7477 19.15 17.7191L13.481 16.1191L6.741 17.9771C6.61942 18.0107 6.49082 18.0094 6.37 17.9731L0.474 16.2181C0.337721 16.1781 0.21799 16.0952 0.132595 15.9817C0.047201 15.8682 0.00069966 15.7302 0 15.5881L0 2.99912C0 2.55912 0.428 2.24312 0.855 2.36712L6.557 4.02812L9.455 3.14112C9.495 3.12912 9.53567 3.12079 9.577 3.11612C9.689 2.46012 10.002 1.83012 10.527 1.21612C11.15 0.486123 12.243 0.0581229 13.308 0.00712291C14.413 -0.0458771 15.257 0.190123 16.218 0.943123M1.333 3.88212V15.0971L6.203 16.5461V5.29912L1.333 3.88212ZM9.542 4.49612L7.536 5.10912V16.3881L12.601 14.9941V11.6991C12.601 11.3351 12.9 11.0401 13.268 11.0401C13.636 11.0401 13.934 11.3351 13.934 11.7001V14.8771L18.667 16.2121V5.13712L17.547 4.61712C17.5283 4.72712 17.504 4.83479 17.474 4.94012C17.2574 5.7072 16.8925 6.42438 16.4 7.05112L13.923 10.1441C13.8578 10.2254 13.7745 10.2904 13.6797 10.3339C13.585 10.3774 13.4814 10.3981 13.3772 10.3946C13.273 10.391 13.1711 10.3631 13.0796 10.3132C12.9881 10.2633 12.9095 10.1927 12.85 10.1071L10.535 6.75412C10.1523 6.22146 9.88533 5.74279 9.734 5.31812C9.63885 5.05234 9.57443 4.77655 9.542 4.49612ZM13.372 1.32512C12.646 1.36012 11.9 1.65212 11.545 2.06712C11.118 2.56712 10.908 3.03512 10.866 3.50912C10.816 4.08012 10.85 4.48312 10.992 4.88212C11.097 5.17712 11.306 5.55112 11.629 6.00212L13.44 8.62412L15.35 6.23912C15.7356 5.74684 16.0213 5.18396 16.191 4.58212C16.431 3.74212 16.069 2.50812 15.391 1.97812C14.696 1.43312 14.171 1.28612 13.373 1.32512M13.511 2.02212C14.615 2.02212 15.511 2.90712 15.511 3.99912C15.5076 4.52638 15.295 5.03073 14.92 5.4014C14.545 5.77208 14.0383 5.97878 13.511 5.97612C12.407 5.97612 11.511 5.09112 11.511 3.99912C11.511 2.90712 12.407 2.02212 13.511 2.02212ZM13.511 3.34012C13.4239 3.3396 13.3376 3.35622 13.257 3.38906C13.1763 3.42189 13.103 3.47029 13.041 3.53148C12.9791 3.59267 12.9298 3.66547 12.896 3.74571C12.8622 3.82595 12.8445 3.91206 12.844 3.99912C12.844 4.36312 13.143 4.65812 13.511 4.65812C13.5981 4.65852 13.6844 4.64176 13.7649 4.60881C13.8455 4.57585 13.9188 4.52735 13.9807 4.46606C14.0425 4.40477 14.0917 4.3319 14.1254 4.25161C14.1591 4.17133 14.1766 4.08519 14.177 3.99812C14.1757 3.82263 14.1048 3.65482 13.98 3.53148C13.8551 3.40814 13.6865 3.33932 13.511 3.34012Z" fill="black"/>
</svg>
