<svg width="14" height="20" viewBox="0 0 14 20" fill="none" xmlns="http://www.w3.org/2000/svg">
<path fill-rule="evenodd" clip-rule="evenodd" d="M0 3C0 2.20435 0.316071 1.44129 0.87868 0.87868C1.44129 0.316071 2.20435 0 3 0H11C11.7956 0 12.5587 0.316071 13.1213 0.87868C13.6839 1.44129 14 2.20435 14 3V17C14 17.7956 13.6839 18.5587 13.1213 19.1213C12.5587 19.6839 11.7956 20 11 20H3C2.20435 20 1.44129 19.6839 0.87868 19.1213C0.316071 18.5587 0 17.7956 0 17V3ZM3 2C2.73478 2 2.48043 2.10536 2.29289 2.29289C2.10536 2.48043 2 2.73478 2 3V17C2 17.2652 2.10536 17.5196 2.29289 17.7071C2.48043 17.8946 2.73478 18 3 18H11C11.2652 18 11.5196 17.8946 11.7071 17.7071C11.8946 17.5196 12 17.2652 12 17V3C12 2.73478 11.8946 2.48043 11.7071 2.29289C11.5196 2.10536 11.2652 2 11 2H3ZM4.5 4C4.5 3.73478 4.60536 3.48043 4.79289 3.29289C4.98043 3.10536 5.23478 3 5.5 3H8.5C8.76522 3 9.01957 3.10536 9.20711 3.29289C9.39464 3.48043 9.5 3.73478 9.5 4C9.5 4.26522 9.39464 4.51957 9.20711 4.70711C9.01957 4.89464 8.76522 5 8.5 5H5.5C5.23478 5 4.98043 4.89464 4.79289 4.70711C4.60536 4.51957 4.5 4.26522 4.5 4ZM5.5 15.5C5.5 15.1022 5.65804 14.7206 5.93934 14.4393C6.22064 14.158 6.60218 14 7 14C7.39782 14 7.77936 14.158 8.06066 14.4393C8.34196 14.7206 8.5 15.1022 8.5 15.5C8.5 15.8978 8.34196 16.2794 8.06066 16.5607C7.77936 16.842 7.39782 17 7 17C6.60218 17 6.22064 16.842 5.93934 16.5607C5.65804 16.2794 5.5 15.8978 5.5 15.5Z" fill="black"/>
</svg>
