<svg width="18" height="20" viewBox="0 0 18 20" fill="none" xmlns="http://www.w3.org/2000/svg">
<path d="M5.82566 9.18409L10.664 14.0233C10.7028 14.062 10.7336 14.1079 10.7546 14.1586C10.7756 14.2092 10.7864 14.2634 10.7864 14.3183C10.7864 14.3731 10.7756 14.4273 10.7546 14.4779C10.7336 14.5286 10.7028 14.5746 10.664 14.6133L6.42399 18.8541C6.34657 18.9318 6.25455 18.9935 6.15324 19.0356C6.05192 19.0777 5.94328 19.0993 5.83357 19.0993C5.72386 19.0993 5.61523 19.0777 5.51391 19.0356C5.41259 18.9935 5.32058 18.9318 5.24316 18.8541L0.994823 14.6041C0.917218 14.5267 0.855646 14.4347 0.813636 14.3335C0.771625 14.2322 0.75 14.1237 0.75 14.0141C0.75 13.9045 0.771625 13.7959 0.813636 13.6947C0.855646 13.5935 0.917218 13.5015 0.994823 13.4241L5.23482 9.18409C5.27353 9.14529 5.31951 9.1145 5.37013 9.09349C5.42075 9.07249 5.47502 9.06168 5.52982 9.06168C5.58463 9.06168 5.6389 9.07249 5.68952 9.09349C5.74014 9.1145 5.78695 9.14529 5.82566 9.18409Z" stroke="black" stroke-width="1.5" stroke-linecap="round" stroke-linejoin="round"/>
<path d="M10.0457 6.16993L13.6765 9.80076C13.7153 9.83947 13.7461 9.88544 13.7671 9.93607C13.7881 9.98669 13.7989 10.041 13.7989 10.0958C13.7989 10.1506 13.7881 10.2048 13.7671 10.2555C13.7461 10.3061 13.7153 10.3521 13.6765 10.3908L10.354 13.7133L6.13316 9.49243L9.45566 6.16993C9.49437 6.13112 9.54035 6.10034 9.59097 6.07933C9.64159 6.05833 9.69586 6.04752 9.75066 6.04752C9.80547 6.04752 9.85974 6.05833 9.91036 6.07933C9.96098 6.10034 10.007 6.13112 10.0457 6.16993Z" stroke="black" stroke-width="1.5" stroke-linecap="round" stroke-linejoin="round"/>
<path d="M16.434 6.4266L13.3673 9.49327L10.3531 6.47827L15.9565 0.874937C16.0161 0.815329 16.092 0.77472 16.1747 0.758236C16.2574 0.741751 16.3431 0.75013 16.421 0.782315C16.499 0.8145 16.5656 0.869048 16.6125 0.939074C16.6595 1.0091 16.6846 1.09146 16.6848 1.17577V5.82577C16.6832 6.05077 16.5931 6.26744 16.4348 6.42577" stroke="black" stroke-width="1.5" stroke-linecap="round" stroke-linejoin="round"/>
</svg>
