<svg width="21" height="21" viewBox="0 0 21 21" fill="none" xmlns="http://www.w3.org/2000/svg">
<path d="M0.507 1.44267C0.7425 0.544172 1.5615 0.00117168 2.4225 0.00117168C2.9535 0.00117168 3.4365 0.200672 3.804 0.526172C4.20918 0.186292 4.72114 0 5.25 0C5.77886 0 6.29082 0.186292 6.696 0.526172C7.07621 0.187144 7.56809 0.000221237 8.0775 0.00117168C8.9385 0.00117168 9.7575 0.544172 9.993 1.44267C10.218 2.30067 10.5 3.68367 10.5 5.25117C10.5 6.12651 10.2811 6.98794 9.86321 7.7571C9.44536 8.52626 8.84182 9.17874 8.1075 9.65517C7.701 9.92067 7.5 10.2627 7.5 10.5552V11.1492C7.5 11.1832 7.502 11.2162 7.506 11.2482C7.557 11.6202 7.7415 13.0017 7.914 14.4342C8.0835 15.8397 8.25 17.3727 8.25 18.0012C8.25 18.7968 7.93393 19.5599 7.37132 20.1225C6.80871 20.6851 6.04565 21.0012 5.25 21.0012C4.45435 21.0012 3.69129 20.6851 3.12868 20.1225C2.56607 19.5599 2.25 18.7968 2.25 18.0012C2.25 17.3712 2.4165 15.8412 2.586 14.4342C2.7585 13.0017 2.943 11.6202 2.994 11.2482L3 11.1492V10.5552C3 10.2627 2.799 9.92067 2.3925 9.65517C1.65818 9.17874 1.05464 8.52626 0.636791 7.7571C0.21894 6.98794 3.74372e-05 6.12651 0 5.25117C0 3.68367 0.282 2.30067 0.507 1.44267ZM7.5 6.00117C7.5 6.20008 7.42098 6.39085 7.28033 6.5315C7.13968 6.67215 6.94891 6.75117 6.75 6.75117C6.55109 6.75117 6.36032 6.67215 6.21967 6.5315C6.07902 6.39085 6 6.20008 6 6.00117V2.25117C6 2.05226 5.92098 1.86149 5.78033 1.72084C5.63968 1.58019 5.44891 1.50117 5.25 1.50117C5.05109 1.50117 4.86032 1.58019 4.71967 1.72084C4.57902 1.86149 4.5 2.05226 4.5 2.25117V6.00117C4.5 6.20008 4.42098 6.39085 4.28033 6.5315C4.13968 6.67215 3.94891 6.75117 3.75 6.75117C3.55109 6.75117 3.36032 6.67215 3.21967 6.5315C3.07902 6.39085 3 6.20008 3 6.00117V2.07867C3 1.92551 2.93916 1.77862 2.83085 1.67032C2.72255 1.56202 2.57566 1.50117 2.4225 1.50117C2.1735 1.50117 2.0025 1.64967 1.9575 1.82367C1.6619 2.94247 1.50819 4.09401 1.5 5.25117C1.49993 5.87673 1.65635 6.49236 1.95501 7.04201C2.25368 7.59166 2.68511 8.05787 3.21 8.39817C3.8685 8.82567 4.5 9.57717 4.5 10.5552V11.1492C4.5 11.2492 4.4935 11.3492 4.4805 11.4492C4.4295 11.8182 4.2465 13.1907 4.0755 14.6142C3.9015 16.0617 3.75 17.4852 3.75 18.0012C3.75 18.399 3.90804 18.7805 4.18934 19.0618C4.47064 19.3431 4.85218 19.5012 5.25 19.5012C5.64782 19.5012 6.02936 19.3431 6.31066 19.0618C6.59196 18.7805 6.75 18.399 6.75 18.0012C6.75 17.4852 6.6 16.0617 6.4245 14.6127C6.2535 13.1907 6.0705 11.8182 6.0195 11.4477C6.00809 11.3491 6.00158 11.2499 6 11.1507V10.5567C6 9.57867 6.6315 8.82717 7.29 8.39967C7.81511 8.05923 8.24667 7.59279 8.54534 7.04285C8.84402 6.49292 9.00032 5.87698 9 5.25117C9 3.85317 8.748 2.60517 8.5425 1.82367C8.4975 1.65117 8.325 1.50117 8.0775 1.50117C7.92434 1.50117 7.77745 1.56202 7.66915 1.67032C7.56084 1.77862 7.5 1.92551 7.5 2.07867V6.00117ZM12 6.75117C12 4.96096 12.7112 3.24407 13.977 1.9782C15.2429 0.71233 16.9598 0.00117168 18.75 0.00117168C18.9489 0.00117168 19.1397 0.0801893 19.2803 0.220842C19.421 0.361494 19.5 0.552259 19.5 0.751172V9.71067L19.5285 9.97617C19.6478 11.0957 19.7623 12.2157 19.872 13.3362C20.0565 15.2202 20.25 17.3322 20.25 18.0012C20.25 18.7968 19.9339 19.5599 19.3713 20.1225C18.8087 20.6851 18.0456 21.0012 17.25 21.0012C16.4544 21.0012 15.6913 20.6851 15.1287 20.1225C14.5661 19.5599 14.25 18.7968 14.25 18.0012C14.25 17.3322 14.4435 15.2202 14.628 13.3362C14.7225 12.3807 14.817 11.4657 14.8875 10.7877L14.9175 10.5012H13.5C13.1022 10.5012 12.7206 10.3431 12.4393 10.0618C12.158 9.78053 12 9.399 12 9.00117V6.75117ZM16.4955 9.83067L16.464 10.1337C16.3468 11.2498 16.2328 12.3663 16.122 13.4832C15.9315 15.4137 15.75 17.4282 15.75 18.0012C15.75 18.399 15.908 18.7805 16.1893 19.0618C16.4706 19.3431 16.8522 19.5012 17.25 19.5012C17.6478 19.5012 18.0294 19.3431 18.3107 19.0618C18.592 18.7805 18.75 18.399 18.75 18.0012C18.75 17.4267 18.5685 15.4137 18.378 13.4832C18.268 12.3663 18.154 11.2498 18.036 10.1337L18.0045 9.83217L18 9.75117V1.55367C16.7503 1.73405 15.6074 2.3588 14.7809 3.3134C13.9544 4.268 13.4997 5.4885 13.5 6.75117V9.00117H15.75C15.8552 9.00121 15.9592 9.02337 16.0552 9.06621C16.1513 9.10905 16.2372 9.17161 16.3075 9.24984C16.3779 9.32806 16.4309 9.4202 16.4633 9.52027C16.4957 9.62033 16.5066 9.72609 16.4955 9.83067Z" fill="black"/>
</svg>
